<?xml version="1.0" standalone="no"?><!DOCTYPE svg PUBLIC "-//W3C//DTD SVG 1.1//EN" "http://www.w3.org/Graphics/SVG/1.1/DTD/svg11.dtd"><svg t="1667541345136" class="icon" viewBox="0 0 1024 1024" version="1.1" xmlns="http://www.w3.org/2000/svg" p-id="3595" width="128" height="128" xmlns:xlink="http://www.w3.org/1999/xlink"><path d="M490.89791 175.781843h231.280181c22.390161 0 44.176041 2.925987 64.594341 12.976116 46.81579 23.089853 67.329503 62.177221 68.092804 112.84132 0.254434 16.919837-1.622014 33.871479-1.59021 50.791316 0.190825 122.923254 0.795105 245.846507 0.858713 368.769762 0.031804 60.42799-33.966891 106.671305-88.924558 122.477994-12.276423 3.530267-24.839084 4.961456-37.656179 4.961456-143.595987-0.063608-287.223779 0.127217-430.819766-0.095412-74.739883-0.127217-127.693885-53.526478-127.598472-128.425381 0.127217-122.382582 0.477063-244.765164 0.890518-367.147747 0.095413-26.39749-3.371246-52.731372 1.494798-79.224276 9.445849-51.522813 53.144827-92.931888 105.65357-96.080504 76.202876-4.579806 152.532969-0.477063 213.72426-1.844644z" fill="#123450" p-id="3596"></path><path d="M296.637823 581.34907c-9.414045-48.660434-28.273939-95.06277-34.094108-144.613722-2.671553-22.740007-3.943721-45.543622-0.508867-68.092804 9.159611-59.728298 49.455539-93.726993 111.791782-95.762462 33.966891-1.113147 67.742957 0.413455 100.692114 9.286828 25.761406 6.965121 50.664099 4.738827 76.393701-0.763301 36.892878-7.855639 74.517253-10.113737 111.918999-3.085008 65.007796 12.181011 98.084169 51.077554 100.151443 117.325714 1.240364 38.991956-6.965121 76.648135-17.524118 113.922663-6.456254 22.803615-12.053794 45.893468-18.00118 68.824301-0.636084 1.462993-1.176756 3.40305-2.607945 3.816504-32.154052 9.191415-63.767432 22.867224-98.306798 10.304563-17.905768-6.519862-34.539367-15.679473-51.936268-23.21707-17.237879-9.922912-33.680653-21.245209-54.576016-23.153462-24.584651-2.258099-45.22558 7.092338-65.294034 19.273349-22.835419 12.02199-46.561357 21.976706-70.764357 30.913688-10.749821 3.975526-21.277013 5.025064-32.503898 2.226294-13.294158-3.307637-26.683728-6.20182-40.105103-9.00059-5.724757-1.176756-11.067863-3.148616-14.725347-8.205485z" fill="#FBDBCB" p-id="3597"></path><path d="M261.335155 714.990341c0.954126-96.398546-23.980371-188.185483-49.709973-279.877007-12.689878-45.289188-24.998105-90.578377-24.043979-138.411902 1.049539-53.685499 35.938752-93.408951 89.178992-100.501289 14.788955-1.971861 29.482498-2.448924 44.271454-2.448924 133.036991 0 266.073982-0.159021 399.110973 0.127217 29.069044 0.063608 56.770507 5.947386 80.051185 25.125322 34.698388 28.560176 39.373606 66.757027 34.793801 108.038886-7.505792 67.647545-30.341212 131.637606-46.943008 197.09066-16.601795 65.42125-26.524707 131.478585-25.029909 199.094326 0.095413 4.516197 0 9.064199-1.017735 13.707612-8.873373-25.379756-13.071528-51.681834-17.873963-77.952107-10.463584-57.24757 10.20915-109.533683 23.789545-163.091965 11.226884-44.207845 19.082523-88.924558 8.650744-134.531789-12.912507-56.325248-53.812715-92.995496-110.710439-101.26459-43.476349-6.329037-86.507439-3.911917-129.156878 5.470324-18.00118 3.943721-35.143647 3.530267-53.113022-0.286238-41.377271-8.777961-82.881759-14.693543-125.722024-8.841569-74.930708 10.240954-111.696369 57.883654-115.799112 128.361773-3.148616 54.257974 10.495388 106.098829 26.588316 157.049166 19.050719 60.268969 14.947977 119.679225-1.653819 179.31211-6.074603 1.844644-3.275833-4.579806-5.661149-6.170016z" fill="#7D4228" p-id="3598"></path><path d="M756.749262 791.384042c13.484983 33.744262 12.785291 34.793801-24.075783 34.825605-146.967233 0.031804-293.934466 0.031804-440.901699 0-37.719788 0-37.8152-0.190825-23.884958-37.751592 14.343697-5.247694 27.860484 2.035469 41.663509 3.434854 14.184676 1.462993 28.401155 2.099078 42.585831 3.530267 18.764481 1.908252 29.991366-16.506383 20.79995-33.267199-14.470913-26.39749-29.609715-52.445135-44.780321-78.460974-7.124142-12.212815-19.527782-19.146132-28.751002-29.228065 0.127217-13.198745-4.99326-31.295338 1.653819-38.387676 8.364506-8.936982 22.61279 5.82017 35.01643 7.951051 30.150387 5.247694 58.901388 3.625679 85.298879-13.6122 16.824425-10.972451 33.744262-21.754076 50.377861-32.949156 26.683728-17.937572 53.335652-17.428705 80.019381-0.286238 11.990185 7.728422 24.139392 15.297823 35.62071 23.725937 39.182781 28.782806 80.84629 34.0305 125.499394 14.311892 2.766966-1.240364 6.074603-1.303972 9.127807-1.908252 4.229959 11.385906-0.826909 23.503308 2.830574 34.921018 0.127217 1.017735 0.127217 2.035469-0.031804 3.085008-31.422555 28.846414-49.741777 66.661614-70.446315 102.886604-5.915582 10.368171-11.990185 21.245209-3.40305 32.440289 8.046464 10.527192 19.750412 9.668478 31.963227 8.300898 20.004845-2.226294 39.977886-4.198155 59.855514-7.505792 4.99326-0.826909 10.81343-2.576141 13.962046 3.943721z" fill="#64798B" p-id="3599"></path><path d="M178.262571 386.643725c43.03109 143.182533 82.977172 282.612169 56.452465 430.883374-26.111253-7.951051-56.070814-47.515483-56.229836-77.157002-0.540671-116.530608-0.222629-233.093021-0.222629-353.726372zM836.705035 422.646085v149.098115c0 53.971736-0.222629 107.911669 0.095412 161.883405 0.190825 32.59931-17.969376 55.339317-39.659844 76.266485-5.565736 5.374911-10.050129 5.152281-11.290493-4.261764-9.032394-68.506258-6.297233-136.726279 4.420785-204.787278 9.573066-60.491599 29.164456-118.502469 46.43414-178.198963z" fill="#7D4228" p-id="3600"></path><path d="M727.998261 673.899307c4.99326 33.267199 14.661739 65.453055 22.326552 98.115974-2.130882 2.544336-4.897848 4.102742-8.046464 4.802435-22.23114 4.99326-44.780321 8.523527-67.552132 8.809765-16.41097 0.190825-21.881293-8.523527-14.311893-22.421965 13.135137-24.171196 26.143057-48.533217 41.281859-71.495854 5.756561-8.746156 11.41771-21.02258 26.302078-17.810355zM273.706991 772.206106l22.899028-101.232786c12.530857 0.063608 18.382831 9.891108 23.662329 18.382831 14.534522 23.248874 27.892288 47.229245 41.027425 71.305029 8.61894 15.80669 3.244029 26.302078-13.99385 24.680063-24.775476-2.258099-50.664099-0.095413-73.594932-13.135137z" fill="#6B8192" p-id="3601"></path><path d="M727.998261 673.899307c-19.654999 6.678883-25.729602 25.220735-35.175451 40.645775-9.922912 16.188341-19.177936 32.82194-28.369352 49.455539-7.728422 13.898438-5.343107 18.032984 10.845234 17.651334 25.316147-0.60428 50.059819-6.170016 75.026121-9.60487 2.130882 6.456254 4.293568 12.912507 6.424449 19.336957-25.729602-0.349846-50.759512 5.947386-76.202876 8.459919-13.357766 1.303972-25.061714-0.127217-33.076373-9.922912-8.491723-10.399975-6.010995-22.072119 1.176755-33.712458 13.548591-22.00851 25.888623-44.780321 38.673914-67.23409 9.096003-15.965711 21.785881-28.337547 37.528962-37.656179l3.148617 22.580985zM273.706991 772.206106c25.02991 3.180421 50.028015 6.615275 75.121533 9.350437 7.855639 0.858714 18.00118-1.526602 12.053794-11.799361-18.955306-32.758332-32.535702-68.983321-60.364382-96.144112-1.113147-1.081343-2.607945-1.781036-3.911917-2.63975-1.526602-5.947386 1.749231-11.067863 2.830574-16.56999 22.199335 6.297233 31.199925 25.506973 41.663509 43.031089 12.435444 20.831755 24.107588 42.108768 36.352207 63.035935 4.99326 8.523527 6.170016 16.888033 0.667889 25.347952-5.724757 8.777961-13.421375 16.188341-24.521043 14.629935-28.560176-4.039134-57.661024-4.198155-85.648725-12.053794 2.576141-5.120477 1.081343-11.735752 5.756561-16.188341z" fill="#4B6379" p-id="3602"></path><path d="M574.670187 569.295276c17.683138 1.749231 32.853744 10.877038 48.787651 17.365096 15.774886 6.392645 30.62745 9.191415 47.451874 4.675218 18.669069-5.025064 38.260459-6.170016 56.579681-12.912507 0.190825 9.191415-5.21589 12.848899-13.039724 17.01525-53.812715 28.528372-98.115974 8.905178-139.779482-26.143057zM296.637823 581.34907c21.976706 5.120477 43.857999 10.81343 66.025531 15.106997 10.686213 2.067273 20.291083-4.579806 30.150386-7.982855 20.831755-7.18775 40.200516-18.382831 62.018201-23.026245-15.456844 12.848899-32.313073 23.82135-49.773582 33.521633-35.557102 19.750412-69.619406 8.110072-103.109233-6.996926-4.516197-2.035469-5.59754-6.074603-5.311303-10.622604z" fill="#EDBFAB" p-id="3603"></path><path d="M724.849644 648.201509c-5.883778-11.226884-1.558406-23.312483-2.830574-34.921017 6.106407 11.226884 2.003665 23.280678 2.830574 34.921017z" fill="#4B6379" p-id="3604"></path><path d="M261.335155 714.990341c1.908252 2.067273 3.816505 4.102742 5.724757 6.170016l-4.198155 19.400565-1.526602-0.286238v-25.284343z" fill="#6B402F" p-id="3605"></path><path d="M706.403205 474.614157c0.095413 22.390161-13.898438 36.924682-35.716122 37.051899-22.040314 0.159021-37.401746-14.375501-37.751592-35.716123-0.349846-22.358356 14.947977-37.878809 37.274529-37.8152 21.722272 0.063608 36.065969 14.534522 36.193185 36.479424z" fill="#143550" p-id="3606"></path><path d="M355.284778 438.134733c20.768146 0.636084 36.733857 17.524117 36.002361 38.069634-0.731497 20.513712-17.714942 36.288598-38.546697 35.906948-20.513712-0.38165-37.179116-17.428705-36.82927-37.719788 0.318042-21.086188 17.524117-36.924682 39.373606-36.256794z" fill="#133450" p-id="3607"></path><path d="M509.089915 810.466565c-10.050129 0-20.132062-0.508867-30.150386 0.127217-14.439109 0.922322-27.765071 0.763301-32.503898-16.888033-1.049539-3.911917-4.516197-6.20182-8.61894-5.438519-13.866634 2.544336-19.81402-6.837904-25.793211-16.506383-8.046464-13.00792-16.061124-26.047644-24.425629-38.864739-6.265428-9.60487-5.59754-16.379166 4.198155-24.075783 8.046464-6.360841 22.199335-8.936982 23.121657-19.559586 0.795105-8.873373-6.042799-18.732677-10.368171-27.733267-5.915582-12.308227-2.035469-19.432369 9.795695-25.093519 28.146722-13.484983 56.007206-27.60605 83.772277-41.854334 8.905178-4.548001 16.79262-4.198155 25.570581 0.318042 26.810945 13.771221 53.62189 27.637854 80.973507 40.359537 13.166941 6.138212 15.266019 14.59813 10.304563 26.747337-0.60428 1.462993-1.367581 2.862378-1.971861 4.325372-9.954716 24.330217-9.954716 24.362021 11.481318 39.532627 13.898438 9.827499 15.106998 15.933907 6.074603 30.150386-7.378576 11.576731-15.011585 22.99444-22.00851 34.761997-6.106407 10.272758-11.735752 20.227475-26.492903 17.524117-4.643414-0.858714-8.332702 2.448924-9.541261 6.837904-4.134547 15.361431-15.520452 16.092928-28.43296 15.393236-11.640339-0.572476-23.312483-0.063608-34.984626-0.063609z" fill="#4B6379" p-id="3608"></path><path d="M669.287698 494.396372c-10.527192-1.717427-18.192005-6.647079-18.160202-18.98711 0-12.689878 6.456254-19.400565 19.20974-19.495978 11.608535-0.063608 19.909433 8.587135 18.923503 20.068453-0.98593 11.703948-7.887443 17.587726-19.973041 18.414635z" fill="#FBFCFD" p-id="3609"></path><path d="M352.008945 455.531633c13.675808 0.540671 21.849489 9.414045 20.79995 20.863559-1.081343 11.926577-8.555331 17.714942-19.941237 18.00118-10.877038 0.286238-19.750412-9.891108-18.637264-20.895363 1.20856-11.767556 8.491723-17.301488 17.778551-17.969376z" fill="#FBFBFC" p-id="3610"></path><path d="M509.28074 794.437246c-8.491723 0-16.983446-0.445259-25.443364 0.095412-10.368171 0.667888-18.700873-0.826909-22.549181-12.371836-2.130882-6.392645-7.314967-11.099668-14.598131-9.795695-12.053794 2.19449-17.110662-5.59754-22.167531-13.898438-1.113147-1.81284-2.130882-3.689288-3.021399-5.59754-4.675218-10.018325-17.110662-17.969376-15.552257-28.496568 1.431189-9.732087 14.947977-13.516787 23.121658-19.909432 9.318632-7.314967 6.488058-15.520452 3.307637-24.266609-10.368171-28.242134-10.495388-28.687393 15.902103-41.21825 20.481908-9.732087 40.041495-28.782806 61.477529-27.097183 21.149797 1.653819 41.250054 17.651334 61.63655 27.669659 25.952232 12.753486 26.492903 13.135137 16.474578 40.264124-5.438519 14.82076-1.367581 23.471504 11.640339 31.295338 18.732677 11.258689 18.287418 11.894773 6.647079 29.609715-4.070938 6.170016-9.064199 12.212815-11.258689 19.050719-5.533932 17.365096-25.316147 7.283163-32.503898 17.206075-7.823835 10.781626-13.6122 20.513712-29.291673 17.61953-7.696618-1.335777-15.870298-0.159021-23.82135-0.159021z" fill="#6B8192" p-id="3611"></path><path d="M499.548654 704.590366c0-20.100258 0.095413-40.168711-0.063609-60.26897-0.063608-7.124142 0.763301-12.40364 10.018325-12.18101 8.428114 0.190825 9.096003 5.025064 9.096003 11.481318-0.095413 41.21825-0.095413 82.468305 0 123.686555 0 6.519862-0.795105 11.226884-9.191416 11.385905-9.318632 0.190825-9.98652-5.184085-9.954716-12.244619 0.222629-20.609125 0.095413-41.250054 0.095413-61.859179z" fill="#516A7E" p-id="3612"></path><path d="M471.529149 714.83132c-8.746156 0.477063-13.484983-0.445259-13.389571-8.01466 0.095413-7.855639 5.406715-7.696618 10.908843-7.79203 6.329037-0.095413 11.831164 0.318042 11.19508 9.032394-0.572476 8.141877-6.615275 6.551666-8.714352 6.774296zM555.778489 714.894928c-9.668478 0.286238-14.852564 0.095413-14.916173-7.696618-0.095413-7.664813 4.802435-8.205485 10.558997-8.17368 6.074603 0.031804 11.990185-0.222629 11.608535 8.650743-0.318042 8.110072-6.074603 7.155946-7.251359 7.219555zM468.857595 746.82635c-5.724757 0.222629-10.718017-0.286238-10.718017-7.982855 0-7.728422 5.056869-8.01466 10.718017-8.01466 6.170016 0 11.926577 0 11.449514 8.809765-0.477063 8.078268-6.297233 6.965121-11.449514 7.18775zM555.269621 746.635525c-9.414045 0.413455-14.407305-0.095413-14.407305-7.79203 0-7.728422 5.056869-8.01466 10.718018-8.01466 6.170016 0 11.926577 0 11.449514 8.809765-0.477063 8.110072-6.329037 6.901513-7.760227 6.996925z" fill="#50697D" p-id="3613"></path></svg>